<?xml version="1.0" standalone="no"?>
<!DOCTYPE svg PUBLIC "-//W3C//DTD SVG 20010904//EN"
 "http://www.w3.org/TR/2001/REC-SVG-20010904/DTD/svg10.dtd">
<svg version="1.0" xmlns="http://www.w3.org/2000/svg"
 width="618.000000pt" height="570.000000pt" viewBox="0 0 618.000000 570.000000"
 preserveAspectRatio="xMidYMid meet">

<g transform="translate(0.000000,570.000000) scale(0.100000,-0.100000)"
fill="#000000" stroke="none">
<path d="M2870 5294 c-80 -23 -114 -38 -190 -84 -105 -62 -267 -227 -354 -358
-64 -97 -70 -103 -95 -97 -117 29 -185 38 -339 42 -210 6 -266 -4 -407 -72
-183 -89 -283 -222 -344 -461 -14 -54 -14 -340 0 -418 6 -34 17 -83 24 -109 8
-27 12 -54 9 -61 -3 -7 -49 -42 -102 -77 -190 -125 -368 -329 -417 -479 -9
-30 -21 -65 -26 -78 -12 -30 -12 -234 0 -264 5 -13 17 -48 27 -78 53 -164 215
-344 446 -499 44 -29 78 -59 78 -68 0 -9 -6 -39 -14 -67 -52 -184 -49 -453 8
-618 52 -155 165 -283 311 -353 131 -62 171 -70 385 -70 163 1 232 8 361 40
25 6 31 0 95 -97 44 -67 105 -139 174 -208 171 -171 306 -239 491 -248 92 -4
196 12 248 38 9 4 41 20 71 35 30 16 62 34 71 41 8 8 19 14 23 14 14 0 148
127 211 201 17 19 57 75 90 124 70 105 72 107 105 100 127 -31 185 -38 332
-42 133 -4 182 -1 235 12 178 42 293 114 406 254 9 11 17 24 17 28 0 3 6 14
13 22 12 14 30 55 57 126 54 142 53 432 -2 626 -14 51 -5 70 53 104 29 17 68
42 88 58 20 15 48 37 63 48 53 40 164 155 206 211 49 67 104 179 126 260 58
209 -32 464 -235 660 -68 64 -81 76 -164 138 -22 16 -45 34 -52 40 -7 5 -15
10 -18 10 -4 0 -22 12 -42 27 -30 23 -34 31 -29 57 4 17 11 56 16 86 5 30 14
71 20 90 16 56 13 314 -5 384 -25 96 -36 127 -65 187 -34 69 -49 88 -131 169
-59 58 -113 92 -224 141 -106 48 -554 46 -652 -3 -33 -16 -48 -5 -98 69 -61
92 -75 112 -110 153 -38 44 -119 125 -166 167 -40 34 -174 113 -193 113 -7 0
-16 4 -21 9 -39 36 -272 52 -365 25z m313 -93 c137 -47 232 -116 362 -262 43
-48 109 -138 129 -176 16 -32 16 -32 -13 -48 -17 -8 -38 -15 -48 -15 -10 0
-27 -6 -38 -13 -11 -7 -38 -19 -60 -26 -59 -20 -308 -141 -398 -195 -86 -50
-107 -54 -152 -26 -66 41 -334 180 -347 180 -4 0 -33 12 -65 26 -105 47 -124
54 -139 54 -19 0 -64 29 -64 42 0 20 127 186 195 254 108 108 192 166 300 204
94 33 242 34 338 1z m-1080 -506 c32 -8 67 -15 77 -15 26 0 26 -38 1 -84 -11
-19 -34 -70 -51 -113 -18 -43 -38 -91 -45 -108 -7 -16 -25 -68 -40 -115 -15
-47 -31 -93 -36 -102 -5 -10 -9 -26 -9 -35 0 -16 -19 -83 -40 -139 -6 -16 -20
-23 -54 -28 -25 -4 -48 -11 -51 -17 -4 -5 -15 -9 -26 -9 -29 0 -206 -58 -296
-96 -17 -8 -34 -14 -37 -14 -6 0 -95 -39 -174 -77 -30 -14 -57 -21 -61 -17
-33 38 -66 317 -51 429 34 253 138 415 320 498 70 32 121 48 184 58 76 12 322
2 389 -16z m2297 0 c196 -61 346 -205 393 -375 5 -19 16 -82 25 -139 13 -88
14 -121 3 -220 -12 -123 -29 -208 -44 -228 -10 -14 -26 -9 -122 37 -33 15 -91
40 -130 55 -38 15 -86 33 -105 41 -19 7 -71 24 -115 37 -44 14 -104 32 -134
41 -29 9 -59 16 -67 16 -19 0 -44 40 -44 72 0 15 -4 30 -10 33 -5 3 -10 14
-10 22 0 17 -42 162 -65 223 -37 100 -72 183 -107 259 -22 46 -37 88 -35 95 5
12 92 35 182 47 97 12 322 3 385 -16z m-1991 -82 c20 -8 44 -19 53 -24 10 -5
22 -9 27 -9 26 0 328 -151 416 -208 19 -11 18 -14 -20 -47 -22 -19 -44 -35
-48 -35 -8 0 -114 -76 -160 -115 -107 -90 -140 -110 -201 -116 -99 -10 -229
-30 -261 -39 -16 -5 -56 -12 -87 -15 -71 -9 -77 1 -53 82 73 245 183 519 219
546 14 9 67 0 115 -20z m1366 -38 c54 -106 113 -253 152 -380 8 -27 21 -68 29
-90 8 -23 14 -56 14 -74 l0 -34 -52 7 c-29 3 -73 11 -98 16 -86 17 -245 40
-282 40 -29 0 -49 10 -101 53 -35 28 -121 93 -190 142 -70 50 -126 96 -124
104 7 42 535 286 602 278 13 -1 30 -22 50 -62z m-643 -345 c130 -88 173 -124
165 -137 -9 -15 -554 -15 -563 -1 -8 12 9 26 111 97 39 26 90 62 115 79 25 17
51 32 57 32 7 0 59 -31 115 -70z m208 -238 c80 -5 122 -12 137 -23 91 -64 357
-325 552 -539 78 -87 75 -66 76 -520 0 -386 -1 -407 -20 -442 -48 -87 -380
-426 -594 -604 l-35 -29 -215 -11 c-161 -8 -274 -7 -441 2 -124 6 -226 12
-227 13 -2 0 -56 48 -120 105 -159 141 -477 468 -504 519 -9 17 -24 298 -24
447 0 149 15 430 24 447 14 27 147 170 300 324 195 195 285 276 326 294 64 30
411 37 765 17z m-955 -41 c3 -6 -27 -40 -66 -78 -87 -83 -171 -167 -263 -262
-38 -39 -73 -71 -79 -71 -22 0 34 320 62 353 7 10 25 17 40 17 14 0 48 7 75
15 27 8 68 15 90 16 23 0 50 4 61 9 27 12 73 12 80 1z m1415 -11 c36 -5 81
-14 100 -20 19 -5 47 -10 61 -10 15 0 32 -7 39 -16 13 -15 17 -32 39 -164 6
-36 16 -89 22 -118 9 -36 9 -56 2 -63 -7 -7 -74 54 -212 191 -110 111 -201
206 -201 212 0 7 15 8 43 4 23 -4 71 -11 107 -16z m-1875 -124 c-3 -22 -10
-63 -15 -91 -20 -110 -40 -248 -40 -284 0 -33 -15 -59 -107 -183 -60 -79 -124
-168 -143 -196 -50 -75 -52 -74 -120 53 -24 44 -49 91 -56 105 -21 39 -94 200
-94 208 0 4 -11 34 -24 67 -34 86 -43 119 -38 133 4 12 119 70 222 112 30 12
64 26 75 30 32 13 165 56 225 74 112 32 122 29 115 -28z m2280 34 c11 -5 47
-16 80 -25 33 -9 68 -21 77 -26 10 -5 23 -9 29 -9 6 0 25 -6 42 -14 18 -7 48
-19 67 -26 19 -7 62 -25 95 -40 33 -15 76 -35 96 -43 55 -25 62 -37 48 -91 -6
-26 -15 -49 -20 -52 -5 -3 -9 -14 -9 -25 0 -10 -4 -27 -10 -37 -5 -9 -16 -35
-26 -57 -26 -63 -145 -306 -173 -352 -14 -24 -31 -43 -36 -43 -6 0 -39 40 -72
89 -34 48 -97 133 -139 187 l-78 99 -13 90 c-7 50 -17 119 -22 155 -5 36 -16
99 -25 140 -10 51 -11 79 -4 87 10 12 55 9 93 -7z m-2990 -302 c7 -18 26 -67
41 -108 33 -92 137 -310 204 -426 28 -48 50 -95 50 -105 0 -10 -21 -56 -47
-101 -95 -167 -233 -471 -233 -514 0 -7 -9 -22 -19 -35 l-19 -24 -88 60 c-156
106 -296 260 -352 387 -43 97 -45 111 -45 227 0 126 9 163 66 271 63 120 164
226 316 334 52 36 98 66 102 66 5 0 16 -15 24 -32z m3689 -2 c148 -95 304
-255 365 -375 84 -165 84 -368 -1 -524 -67 -124 -189 -249 -352 -362 l-69 -48
-18 24 c-10 13 -21 37 -25 54 -4 16 -10 36 -15 45 -4 8 -21 49 -38 90 -26 67
-87 199 -110 240 -51 94 -78 141 -98 172 -12 21 -23 42 -23 48 0 6 11 27 23
48 79 125 237 450 237 487 0 7 4 16 9 19 4 3 11 20 15 38 6 31 31 78 42 78 3
0 29 -15 58 -34z m-3064 -363 c3 -124 -1 -557 -5 -561 -9 -10 -45 35 -162 206
-24 34 -43 71 -43 82 0 11 24 54 53 95 28 42 59 86 67 99 28 42 74 96 82 96 4
0 8 -8 8 -17z m2451 -91 c42 -59 86 -124 98 -144 l23 -38 -23 -37 c-49 -82
-175 -253 -184 -250 -10 4 -20 539 -10 564 2 7 8 13 12 13 4 0 42 -49 84 -108z
m-2661 -350 c52 -77 52 -77 83 -117 137 -176 157 -207 157 -245 0 -38 22 -193
40 -280 5 -25 12 -66 15 -92 l6 -48 -36 0 c-19 0 -64 10 -98 21 -34 12 -75 25
-92 29 -44 12 -170 58 -223 82 -126 56 -192 89 -197 98 -7 12 41 156 89 265
52 117 153 312 175 339 22 26 34 19 81 -52z m2873 22 c55 -90 207 -414 207
-439 0 -6 6 -25 14 -41 8 -16 17 -43 21 -61 6 -29 3 -34 -34 -57 -22 -15 -47
-26 -54 -26 -7 0 -17 -4 -22 -9 -6 -5 -46 -23 -90 -41 -44 -17 -87 -35 -95
-39 -8 -4 -62 -22 -120 -40 -58 -18 -115 -37 -128 -42 -28 -11 -89 -12 -96 -1
-2 4 2 41 10 82 9 41 19 104 24 140 35 254 32 243 92 317 66 82 156 204 192
261 14 23 32 42 39 42 7 0 25 -21 40 -46z m-2397 -605 c66 -67 146 -147 178
-178 145 -137 146 -137 -104 -89 -30 6 -72 13 -92 15 -21 3 -43 12 -50 21 -28
33 -82 352 -60 352 5 0 63 -54 128 -121z m1958 85 c-1 -16 -9 -69 -18 -119 -9
-49 -20 -112 -25 -139 -9 -54 -30 -76 -72 -76 -15 0 -40 -5 -56 -11 -15 -6
-59 -15 -98 -20 -38 -5 -87 -12 -107 -15 -24 -4 -38 -2 -38 4 0 15 393 411
405 408 6 -2 9 -16 9 -32z m-2692 -189 c37 -18 100 -45 140 -60 40 -15 87 -33
103 -40 32 -13 159 -52 260 -80 33 -9 65 -18 72 -20 7 -2 15 -17 19 -32 3 -15
12 -45 20 -66 8 -20 14 -48 14 -60 0 -13 4 -27 8 -32 4 -6 16 -37 26 -70 22
-73 35 -111 51 -150 7 -16 26 -61 41 -100 16 -38 39 -89 51 -113 29 -54 30
-92 4 -92 -11 0 -48 -8 -83 -17 -94 -25 -371 -24 -453 1 -214 65 -339 186
-409 396 -29 90 -40 221 -27 338 14 118 29 197 43 225 11 21 24 18 120 -28z
m3405 33 c15 -20 31 -104 44 -225 23 -209 -13 -385 -107 -518 -80 -115 -162
-170 -329 -222 -49 -15 -90 -18 -220 -17 -88 1 -182 7 -210 13 -27 7 -65 15
-83 18 -19 3 -36 11 -38 18 -3 6 13 50 34 96 21 46 47 107 57 134 10 28 21 55
25 60 7 10 82 248 101 320 17 61 28 85 41 89 7 2 38 11 68 20 105 31 225 68
260 81 96 35 183 71 255 106 92 44 90 43 102 27z m-2554 -288 c52 -11 172 -30
253 -39 66 -7 63 -6 186 -101 45 -36 100 -76 121 -89 20 -12 37 -27 37 -32 0
-5 6 -9 13 -9 8 0 31 -15 53 -34 38 -34 39 -35 19 -50 -27 -21 -398 -206 -413
-206 -7 0 -20 -4 -30 -9 -65 -34 -150 -56 -168 -43 -12 8 -69 124 -104 212
-12 30 -26 66 -31 79 -13 32 -62 182 -84 254 -24 81 -18 91 51 83 30 -3 74
-10 97 -16z m1747 -7 c0 -23 -20 -105 -40 -158 -21 -58 -32 -92 -37 -110 -2
-11 -8 -29 -13 -40 -42 -104 -79 -190 -105 -240 -28 -56 -32 -60 -64 -58 -19
1 -52 9 -75 18 -23 10 -50 21 -61 25 -207 81 -450 206 -450 233 0 8 50 50 110
94 61 43 145 106 189 141 65 51 85 62 117 62 21 0 60 5 86 10 27 6 80 15 118
20 39 5 90 13 115 18 25 5 60 10 78 11 28 1 32 -2 32 -26z m-673 -70 c5 -13
-98 -92 -211 -163 l-68 -43 -32 18 c-32 19 -234 161 -250 175 -4 5 -5 13 -1
19 10 17 557 10 562 -6z m-232 -339 c62 -38 125 -71 250 -132 133 -65 159 -77
265 -117 25 -9 60 -23 78 -31 l33 -14 -17 -32 c-9 -18 -20 -35 -23 -38 -3 -3
-19 -25 -35 -50 -16 -25 -79 -95 -140 -156 -95 -94 -123 -116 -196 -151 -47
-23 -103 -47 -125 -54 -59 -19 -239 -15 -295 6 -134 51 -199 94 -311 205 -66
66 -179 210 -179 229 0 6 -4 11 -10 11 -5 0 -10 6 -10 14 0 16 42 46 66 46 9
0 28 6 42 14 15 8 63 28 107 46 79 32 253 115 310 149 138 81 145 83 190 55z"/>
<path d="M2715 3638 c-3 -7 -6 -65 -7 -128 l-3 -115 -40 -3 c-80 -6 -125 -46
-125 -115 0 -58 -8 -62 -140 -65 l-121 -4 3 -36 3 -37 114 -3 c66 -1 121 -7
128 -14 10 -8 13 -32 11 -82 l-3 -71 -125 -5 -125 -5 0 -45 0 -45 125 -5 125
-5 3 -62 c5 -100 2 -102 -136 -105 l-117 -3 -3 -37 -3 -38 115 0 c129 0 146
-8 146 -64 0 -70 45 -113 125 -118 l40 -3 5 -125 5 -125 40 0 40 0 3 122 c3
141 -1 137 107 131 l60 -3 5 -125 5 -125 43 -3 42 -3 0 118 c0 65 4 124 9 131
5 9 29 12 82 10 l74 -3 3 -114 c1 -64 8 -121 14 -128 6 -7 26 -13 44 -13 l34
0 0 124 c0 138 -1 136 70 136 32 0 46 7 75 37 30 31 35 43 35 83 0 34 4 50 16
54 9 3 67 6 130 6 114 0 114 0 114 24 0 54 -4 56 -120 56 -60 0 -115 3 -124 6
-13 5 -16 22 -16 85 l0 78 128 3 127 3 0 45 0 45 -127 3 -128 3 0 78 c0 63 3
80 16 85 9 3 64 6 124 6 116 0 120 2 120 56 0 24 -1 24 -107 24 -150 0 -153 2
-153 60 0 40 -5 52 -35 83 -29 30 -43 37 -75 37 -71 0 -70 -2 -70 136 l0 124
-34 0 c-18 0 -38 -6 -44 -13 -6 -7 -13 -64 -14 -128 l-3 -114 -68 -3 c-42 -2
-74 2 -83 9 -11 9 -14 40 -14 131 l0 119 -42 -3 -43 -3 -5 -125 -5 -125 -60
-3 c-108 -6 -104 -10 -107 131 l-3 122 -38 3 c-24 2 -39 -1 -42 -10z m676
-338 c18 -10 19 -25 19 -391 0 -352 -1 -380 -17 -387 -10 -4 -184 -7 -386 -7
-316 0 -369 2 -377 15 -11 18 -13 739 -2 756 4 6 14 14 22 17 28 10 720 8 741
-3z"/>
</g>
</svg>
